<svg version="1.1" id="Layer_1" xmlns="http://www.w3.org/2000/svg" x="0" y="0" viewBox="0 0 79.4 90" xml:space="preserve"><style>.st0{fill:#fff}</style><g id="XMLID_1_"><path d="M63.9 39.1c.7 7.5-2.1 14.7-7.6 19.8-3.1 2.9-4.9 7-4.9 11.1v9.5c0 2.9-2.3 5.3-5.1 5.5-.8 2.6-3.3 5-6.4 5s-5.6-2.4-6.3-4.9c-2.9-.2-5.2-2.6-5.2-5.5V70c0-4.2-1.8-8.2-4.9-11.1-5.5-5.1-8.3-12.3-7.6-19.8 1-11.6 10.6-21 22.3-21.8 1.1-.1 2.3-.1 3.4 0 11.7.8 21.2 10.2 22.3 21.8zm-9.7 17.6c4.8-4.5 7.2-10.8 6.6-17.4-.8-10.1-9.2-18.3-19.4-19-1-.1-2-.1-3 0-10.2.7-18.5 8.9-19.4 19-.6 6.6 1.8 12.9 6.6 17.4 3.4 3.1 5.4 7.4 5.8 11.8h3.9V49.4h-2c-2.7 0-5-2.2-5-5 0-2.7 2.2-5 5-5s5 2.2 5 5v2h3.3v-2c0-2.7 2.2-5 5-5s5 2.2 5 5c0 2.7-2.2 5-5 5h-2v19.2h3.9c.3-4.5 2.4-8.8 5.7-11.9zm-5.8 20.9v-1.5H31.5v1.5h16.9zm0-4.5v-1.5H31.5v1.5h16.9zm-.2 7.5H31.7c.4.9 1.3 1.5 2.3 1.5h11.9c1 0 1.9-.6 2.3-1.5zm.3-36.2c0-1.1-.9-2-2-2s-2 .9-2 2v2h2c1.1 0 2-.9 2-2zm-5.6 40.7h-6.1c.6 1 1.7 1.9 3 1.9 1.4 0 2.5-.9 3.1-1.9zm-1.4-16.6V49.4h-3.3v19.2h3.3zm-6.2-22.1v-2c0-1.1-.9-2-2-2s-2 .9-2 2 .9 2 2 2h2z"/><path class="st0" d="M60.9 39.3c.6 6.6-1.8 12.9-6.6 17.4-3.4 3.1-5.4 7.4-5.8 11.8h-3.9V49.4h2c2.7 0 5-2.2 5-5 0-2.7-2.2-5-5-5s-5 2.2-5 5v2h-3.3v-2c0-2.7-2.2-5-5-5s-5 2.2-5 5c0 2.7 2.2 5 5 5h2v19.2h-3.9c-.4-4.5-2.4-8.7-5.8-11.8-4.8-4.5-7.2-10.8-6.6-17.4.9-10.2 9.3-18.4 19.5-19.1 1-.1 2-.1 3 0 10.1.7 18.5 8.9 19.4 19z"/><path class="st0" d="M46.5 42.5c1.1 0 2 .9 2 2s-.9 2-2 2h-2v-2c0-1.2.9-2 2-2zM38.3 49.4h3.3v19.1h-3.3zM35.3 44.4v2h-2c-1.1 0-2-.9-2-2s.9-2 2-2c1.1.1 2 .9 2 2z"/></g><path d="M39.9 25.7c2.8 0 5.6.8 7.9 2.3.2.2.5.2.8.2.5 0 1-.2 1.3-.7.4-.7.2-1.6-.5-2.1-2.9-1.8-6.2-2.8-9.5-2.8-.8 0-1.5.7-1.5 1.5s.7 1.6 1.5 1.6zM53.7 35c.2.6.8.9 1.4.9.2 0 .4 0 .6-.1.8-.3 1.1-1.2.8-2-.6-1.4-1.4-2.8-2.3-4-.5-.7-1.4-.8-2.1-.3-.7.5-.8 1.4-.3 2.1.8 1 1.4 2.2 1.9 3.4z"/></svg>