<svg xmlns="http://www.w3.org/2000/svg" viewBox="0 0 63 64" xml:space="preserve">
  <path fill="#69c8eb" d="M12.9 16.8h37.3v37.3H12.9z"/>
  <path d="M10.9 58.1h41.3c1.1 0 2-.9 2-2V14.8c0-1.1-.9-2-2-2H10.9c-1.1 0-2 .9-2 2v41.3c0 1.1.9 2 2 2zm2-41.3h37.3v37.3H12.9V16.8z"/>
  <path d="M57.6 0H5.4C2.4 0 0 2.4 0 5.4c0 2 1.1 3.9 3 4.8V62c0 1.1.9 2 2 2h53.1c1.1 0 2-.9 2-2V10.3c2.7-1.4 3.7-4.7 2.4-7.3-1-1.9-2.9-3-4.9-3zM5.4 4h52.1c.9 0 1.5.6 1.5 1.4s-.6 1.4-1.4 1.4H5.4C4.7 6.9 4 6.2 4 5.4S4.7 4 5.4 4zm50.7 56H7V10.9h49.1V60z"/>
  <path d="M43.9 30c.8.8 2 .8 2.8 0 .8-.8.8-2 0-2.8l-6.9-6.9c-.8-.8-2-.8-2.8 0-.8.8-.8 2 0 2.8l6.9 6.9zM29 19.3c-.8-.8-2-.8-2.8 0s-.8 2 0 2.8l19.2 19.2c.4.4.9.6 1.4.6 1.1 0 2-.9 2-2 0-.5-.2-1.1-.6-1.4L29 19.3z"/>
</svg>
