<svg xmlns="http://www.w3.org/2000/svg" viewBox="0 0 55 96" xml:space="preserve">
  <path d="M29 63.8C29 45 29 28 28.9 9.7 29 4 24 0 18 0S7 5 7 10v53.9C2.8 67.2 0 72.3 0 78c0 9.9 8.1 18 18 18s18-8.1 18-18c0-5.8-2.8-10.9-7-14.2zM18 92c-7.8 0-14-6.2-14-14 0-4.8 2.4-9.1 6.1-11.6.5-.4.9-1 .9-1.6V10c0-4 3-6 7-6 4.1 0 7.1 2 7 6 .1 18.5 0 35.9 0 54.8 0 .6.3 1.3.9 1.7C29.6 68.9 32 73.2 32 78c0 7.8-6.3 14-14 14zM34.6 6c-1 .1-1.9 1.2-1.8 2.2.1 1 1.2 1.9 2.2 1.8h18c1.1 0 2-.9 2-2s-1-2-2-2H34.6zM34.6 16c-1 .1-1.9 1.2-1.8 2.2.1 1 1.2 1.9 2.2 1.8h8c1.1 0 2-.9 2-2s-1-2-2-2h-8.4zM34.6 26c-1 .1-1.9 1.2-1.8 2.2.1 1 1.2 1.9 2.2 1.8h18c1.1 0 2-.9 2-2s-1-2-2-2H34.6z"/>
  <path d="M18 28.9c-1 .1-2 1.1-2 2v37.2c-4.5.9-8 5-8 9.8 0 5.5 4.5 10 10 10s10-4.5 10-10c0-4.8-3.5-8.9-8-9.8V31c0-1.1-1-2.1-2-2.1z" fill="#ff3b00"/>
  <path d="M34.6 36c-1 .1-1.9 1.2-1.8 2.2.1 1 1.2 1.9 2.2 1.8h8c1.1 0 2-.9 2-2s-1-2-2-2h-8.4zM34.6 46c-1 .1-1.9 1.2-1.8 2.2.1 1 1.2 1.9 2.2 1.8h18c1.1 0 2-.9 2-2s-1-2-2-2H34.6zM34.6 56c-1 .1-1.9 1.2-1.8 2.2.1 1 1.2 1.9 2.2 1.8h8c1.1 0 2-.9 2-2s-1-2-2-2h-8.4z"/>
</svg>
